<svg width="22" height="22" viewBox="0 0 22 22" fill="none" xmlns="http://www.w3.org/2000/svg">
<path d="M19.4615 5.54545L18.8201 18.4329C18.7483 19.8744 17.7382 21 16.5164 21H5.48363C4.26176 21 3.25167 19.8744 3.17992 18.4329L2.53846 5.54545M8.69231 10.5455L11 13.2727M11 13.2727L13.3077 16M11 13.2727L13.3077 10.5455M11 13.2727L8.69231 16M2.15385 5.54545H19.8462C20.4834 5.54545 21 4.93493 21 4.18182V2.36364C21 1.61052 20.4834 1 19.8462 1H2.15385C1.51659 1 1 1.61052 1 2.36364V4.18182C1 4.93493 1.51659 5.54545 2.15385 5.54545Z" stroke="currentColor" stroke-width="1.5" stroke-linecap="round" stroke-linejoin="round"/>
</svg>
