<svg width="17" height="17" viewBox="0 0 17 17" fill="none" xmlns="http://www.w3.org/2000/svg">
<path fill-rule="evenodd" clip-rule="evenodd" d="M7.19231 1.30769C3.94232 1.30769 1.30769 3.94232 1.30769 7.19231C1.30769 10.4423 3.94232 13.0769 7.19231 13.0769C8.81748 13.0769 10.2877 12.419 11.3534 11.3534C12.419 10.2877 13.0769 8.81748 13.0769 7.19231C13.0769 3.94232 10.4423 1.30769 7.19231 1.30769ZM0 7.19231C0 3.22011 3.22011 0 7.19231 0C11.1645 0 14.3846 3.22011 14.3846 7.19231C14.3846 8.94272 13.7586 10.5479 12.7194 11.7947L16.8085 15.8838C17.0638 16.1392 17.0638 16.5531 16.8085 16.8085C16.5531 17.0638 16.1392 17.0638 15.8838 16.8085L11.7947 12.7194C10.5479 13.7586 8.94272 14.3846 7.19231 14.3846C3.22011 14.3846 0 11.1645 0 7.19231Z" fill="#0F172A"/>
</svg>
