<svg width="30" height="26" viewBox="0 0 30 26" fill="none" xmlns="http://www.w3.org/2000/svg">
<path d="M8.56115 23.8333C7.95461 23.8333 7.38994 23.4917 7.16799 22.921C6.6907 21.6937 6.42857 20.3569 6.42857 18.9583C6.42857 16.4319 7.28391 14.1074 8.71777 12.2648C8.93335 11.9878 9.24937 11.8186 9.57449 11.6913C10.2499 11.4269 10.8465 10.9484 11.3059 10.3562C12.4104 8.93221 13.8024 7.74713 15.3936 6.89031C16.4252 6.3348 17.3204 5.50952 17.7545 4.41225C18.0582 3.64447 18.2143 2.82514 18.2143 1.99821V1.08333C18.2143 0.485025 18.694 0 19.2857 0C21.0609 0 22.5 1.45507 22.5 3.25C22.5 4.91346 22.1292 6.48936 21.4666 7.8978C21.0872 8.70428 21.6195 9.75 22.5027 9.75H26.9682C28.4348 9.75 29.7476 10.7524 29.9028 12.227C29.9671 12.8369 30 13.4562 30 14.0833C30 18.1966 28.583 21.9752 26.2157 24.9473C25.662 25.6425 24.806 26 23.9232 26H18.1861C17.4951 26 16.8087 25.8874 16.1532 25.6664L11.704 24.1669C11.0485 23.946 10.362 23.8333 9.67107 23.8333H8.56115Z" fill="white"/>
<path d="M1.18784 12.6058C0.42115 14.5729 0 16.7159 0 18.9583C0 20.7207 0.260119 22.4216 0.743654 24.0239C1.11416 25.2518 2.29168 26 3.56127 26H4.85811C5.49457 26 5.88767 25.2803 5.60604 24.7032C4.76068 22.9709 4.28571 21.0207 4.28571 18.9583C4.28571 16.491 4.96555 14.1841 6.14615 12.2189C6.49615 11.6363 6.10577 10.8333 5.43159 10.8333H3.92765C2.73905 10.8333 1.62364 11.4877 1.18784 12.6058Z" fill="white"/>
</svg>
