<svg width="31" height="27" viewBox="0 0 31 27" fill="none" xmlns="http://www.w3.org/2000/svg">
<path d="M21.0066 2.25L22.5337 2.25C23.6863 4.02514 24.3571 6.15171 24.3571 8.4375C24.3571 10.7233 23.6863 12.8499 22.5337 14.625L22.3162 14.625C21.1259 14.625 20.0519 15.2938 19.3173 16.2455C18.1759 17.7242 16.7375 18.9549 15.0933 19.8447C14.0272 20.4216 13.1022 21.2786 12.6537 22.418C12.3398 23.2154 12.1786 24.0662 12.1786 24.9249V25.875C12.1786 26.4963 11.6829 27 11.0714 27C9.23705 27 7.75 25.489 7.75 23.625C7.75 21.8976 8.13316 20.261 8.81783 18.7984C9.20989 17.9609 8.65989 16.875 7.74719 16.875L3.13288 16.875C1.61737 16.875 0.260841 15.834 0.100394 14.3027C0.0340341 13.6694 -1.68085e-07 13.0262 0 12.375C1.10248e-06 8.10357 1.46421 4.17964 3.91042 1.09317C4.4826 0.371228 5.36714 -2.43109e-07 6.27938 0L12.2077 1.5799e-06C12.9217 1.77017e-06 13.631 0.116966 14.3084 0.346389L18.9059 1.90362C19.5833 2.13304 20.2926 2.25 21.0066 2.25Z" fill="white"/>
<path d="M29.7726 15.0343C30.5648 12.9916 31 10.7662 31 8.43751C31 6.60739 30.7312 4.84106 30.2316 3.17707C29.8487 1.90203 28.6319 1.12501 27.32 1.12501L25.98 1.12501C25.3223 1.125 24.9161 1.8724 25.2071 2.4717C26.0806 4.27063 26.5714 6.29582 26.5714 8.4375C26.5714 10.9998 25.8689 13.3953 24.649 15.4361C24.2873 16.0411 24.6907 16.875 25.3873 16.875H26.9414C28.1696 16.875 29.3222 16.1955 29.7726 15.0343Z" fill="white"/>
</svg>
